<mxfile host="app.diagrams.net" modified="2020-08-05T07:38:09.207Z" agent="5.0 (Macintosh; Intel Mac OS X 10_15_2) AppleWebKit/537.36 (KHTML, like Gecko) Chrome/84.0.4147.105 Safari/537.36" etag="cedjgL0H3HrnMN4JV4hk" version="13.5.9" type="github">
  <diagram id="n4www6ECSHv2gT_Rec8N" name="Page-1">
    <mxGraphModel dx="2066" dy="1154" grid="1" gridSize="10" guides="1" tooltips="1" connect="1" arrows="1" fold="1" page="1" pageScale="1" pageWidth="827" pageHeight="1169" math="0" shadow="0">
      <root>
        <mxCell id="0" />
        <mxCell id="1" parent="0" />
        <mxCell id="LC9Wi4Wx6myGLIoR1kHM-6" style="edgeStyle=orthogonalEdgeStyle;rounded=0;orthogonalLoop=1;jettySize=auto;html=1;entryX=-0.008;entryY=0.864;entryDx=0;entryDy=0;entryPerimeter=0;startArrow=classic;startFill=1;" edge="1" parent="1" source="LC9Wi4Wx6myGLIoR1kHM-1" target="LC9Wi4Wx6myGLIoR1kHM-4">
          <mxGeometry relative="1" as="geometry" />
        </mxCell>
        <mxCell id="LC9Wi4Wx6myGLIoR1kHM-1" value="容器框架" style="rounded=1;whiteSpace=wrap;html=1;" vertex="1" parent="1">
          <mxGeometry x="270" y="290" width="180" height="60" as="geometry" />
        </mxCell>
        <mxCell id="LC9Wi4Wx6myGLIoR1kHM-2" value="业务代码" style="rounded=1;whiteSpace=wrap;html=1;" vertex="1" parent="1">
          <mxGeometry x="270" y="130" width="180" height="60" as="geometry" />
        </mxCell>
        <mxCell id="LC9Wi4Wx6myGLIoR1kHM-3" value="应用框架" style="rounded=1;whiteSpace=wrap;html=1;" vertex="1" parent="1">
          <mxGeometry x="270" y="210" width="180" height="60" as="geometry" />
        </mxCell>
        <mxCell id="LC9Wi4Wx6myGLIoR1kHM-4" value="命令行工具&lt;br&gt;(伪总控)" style="rounded=1;whiteSpace=wrap;html=1;" vertex="1" parent="1">
          <mxGeometry x="560" y="130" width="120" height="220" as="geometry" />
        </mxCell>
        <mxCell id="LC9Wi4Wx6myGLIoR1kHM-5" value="" style="endArrow=none;dashed=1;html=1;dashPattern=1 3;strokeWidth=2;" edge="1" parent="1">
          <mxGeometry width="50" height="50" relative="1" as="geometry">
            <mxPoint x="160" y="280" as="sourcePoint" />
            <mxPoint x="750" y="280" as="targetPoint" />
          </mxGeometry>
        </mxCell>
        <mxCell id="LC9Wi4Wx6myGLIoR1kHM-8" style="edgeStyle=orthogonalEdgeStyle;rounded=0;orthogonalLoop=1;jettySize=auto;html=1;startArrow=classic;startFill=1;" edge="1" parent="1" source="LC9Wi4Wx6myGLIoR1kHM-7" target="LC9Wi4Wx6myGLIoR1kHM-4">
          <mxGeometry relative="1" as="geometry" />
        </mxCell>
        <mxCell id="LC9Wi4Wx6myGLIoR1kHM-7" value="Actor" style="shape=umlActor;verticalLabelPosition=bottom;verticalAlign=top;html=1;outlineConnect=0;" vertex="1" parent="1">
          <mxGeometry x="770" y="210" width="30" height="60" as="geometry" />
        </mxCell>
        <mxCell id="LC9Wi4Wx6myGLIoR1kHM-11" value="面向开发者" style="text;html=1;align=center;verticalAlign=middle;resizable=0;points=[];autosize=1;" vertex="1" parent="1">
          <mxGeometry x="150" y="220" width="80" height="20" as="geometry" />
        </mxCell>
        <mxCell id="LC9Wi4Wx6myGLIoR1kHM-12" value="internal" style="text;html=1;align=center;verticalAlign=middle;resizable=0;points=[];autosize=1;" vertex="1" parent="1">
          <mxGeometry x="165" y="300" width="50" height="20" as="geometry" />
        </mxCell>
      </root>
    </mxGraphModel>
  </diagram>
</mxfile>
